REM DIRINDEX 1\2\6,1\2\7,1\2\8,1\2\9,1\3\10,1\3\11,1\4\12,1\4\13,1\4\14,1\5\15,1\5\16,1\5\17
REM DIRNAME cjc020,folder01,folder02,folder03,folder04,folder05,folder06,folder07,folder08,folder09,folder10,folder11,folder12,folder13,folder14,folder15,folder16
TITLE ""
FILE "1900_3_090 sec15_1483_1500.mp3" MP3
  TRACK 01 AUDIO
    TITLE "0:"
    INDEX 01 00:00:00
  TRACK 02 AUDIO
    TITLE "17:cjc020_8947"
    INDEX 01 00:00:15
  TRACK 03 AUDIO
    TITLE "0:"
    INDEX 01 00:01:28
  TRACK 04 AUDIO
    TITLE "16:cjc020_8948"
    INDEX 01 00:01:30
  TRACK 05 AUDIO
    TITLE "0:"
    INDEX 01 00:02:59
  TRACK 06 AUDIO
    TITLE "17:cjc020_8949"
    INDEX 01 00:03:45
  TRACK 07 AUDIO
    TITLE "0:"
    INDEX 01 00:05:07
  TRACK 08 AUDIO
    TITLE "16:cjc020_8950"
    INDEX 01 00:05:14
  TRACK 09 AUDIO
    TITLE "0:"
    INDEX 01 00:06:41
  TRACK 10 AUDIO
    TITLE "17:cjc020_8951"
    INDEX 01 00:07:17
  TRACK 11 AUDIO
    TITLE "0:"
    INDEX 01 00:08:40
  TRACK 12 AUDIO
    TITLE "16:cjc020_8952"
    INDEX 01 00:08:48
  TRACK 13 AUDIO
    TITLE "0:"
    INDEX 01 00:09:45
  TRACK 14 AUDIO
    TITLE "17:cjc020_8953"
    INDEX 01 00:10:27
  TRACK 15 AUDIO
    TITLE "0:"
    INDEX 01 00:11:48
  TRACK 16 AUDIO
    TITLE "16:cjc020_8954"
    INDEX 01 00:11:54
  TRACK 17 AUDIO
    TITLE "0:"
    INDEX 01 00:12:65
  TRACK 18 AUDIO
    TITLE "17:cjc020_8955"
    INDEX 01 00:13:51
  TRACK 19 AUDIO
    TITLE "0:"
    INDEX 01 00:15:01
  TRACK 20 AUDIO
    TITLE "16:cjc020_8956"
    INDEX 01 00:15:07
  TRACK 21 AUDIO
    TITLE "0:"
    INDEX 01 00:16:06
  TRACK 22 AUDIO
    TITLE "17:cjc020_8957"
    INDEX 01 00:16:65
  TRACK 23 AUDIO
    TITLE "0:"
    INDEX 01 00:18:15
  TRACK 24 AUDIO
    TITLE "16:cjc020_8958"
    INDEX 01 00:18:19
  TRACK 25 AUDIO
    TITLE "0:"
    INDEX 01 00:19:15
  TRACK 26 AUDIO
    TITLE "17:cjc020_8959"
    INDEX 01 00:19:73
  TRACK 27 AUDIO
    TITLE "0:"
    INDEX 01 00:21:09
  TRACK 28 AUDIO
    TITLE "16:cjc020_8960"
    INDEX 01 00:21:15
  TRACK 29 AUDIO
    TITLE "0:"
    INDEX 01 00:22:13
  TRACK 30 AUDIO
    TITLE "17:cjc020_8961"
    INDEX 01 00:22:72
  TRACK 31 AUDIO
    TITLE "0:"
    INDEX 01 00:24:06
  TRACK 32 AUDIO
    TITLE "16:cjc020_8962"
    INDEX 01 00:24:08
  TRACK 33 AUDIO
    TITLE "0:"
    INDEX 01 00:25:11
  TRACK 34 AUDIO
    TITLE "17:cjc020_8963"
    INDEX 01 00:25:72
  TRACK 35 AUDIO
    TITLE "0:"
    INDEX 01 00:27:18
  TRACK 36 AUDIO
    TITLE "16:cjc020_8964"
    INDEX 01 00:27:24
  TRACK 37 AUDIO
    TITLE "0:"
    INDEX 01 00:28:49
  TRACK 38 AUDIO
    TITLE "17:cjc020_8965"
    INDEX 01 00:29:33
  TRACK 39 AUDIO
    TITLE "0:"
    INDEX 01 00:30:57
  TRACK 40 AUDIO
    TITLE "16:cjc020_8966"
    INDEX 01 00:30:61
  TRACK 41 AUDIO
    TITLE "0:"
    INDEX 01 00:31:67
  TRACK 42 AUDIO
    TITLE "17:cjc020_8967"
    INDEX 01 00:32:48
  TRACK 43 AUDIO
    TITLE "0:"
    INDEX 01 00:34:00
  TRACK 44 AUDIO
    TITLE "16:cjc020_8968"
    INDEX 01 00:34:04
  TRACK 45 AUDIO
    TITLE "0:"
    INDEX 01 00:35:06
  TRACK 46 AUDIO
    TITLE "17:cjc020_8969"
    INDEX 01 00:35:63
  TRACK 47 AUDIO
    TITLE "0:"
    INDEX 01 00:36:72
  TRACK 48 AUDIO
    TITLE "16:cjc020_8970"
    INDEX 01 00:37:01
  TRACK 49 AUDIO
    TITLE "0:"
    INDEX 01 00:37:69
  TRACK 50 AUDIO
    TITLE "17:cjc020_8971"
    INDEX 01 00:38:53
  TRACK 51 AUDIO
    TITLE "0:"
    INDEX 01 00:40:07
  TRACK 52 AUDIO
    TITLE "16:cjc020_8972"
    INDEX 01 00:40:13
  TRACK 53 AUDIO
    TITLE "0:"
    INDEX 01 00:41:10
  TRACK 54 AUDIO
    TITLE "17:cjc020_8973"
    INDEX 01 00:41:71
  TRACK 55 AUDIO
    TITLE "0:"
    INDEX 01 00:43:07
  TRACK 56 AUDIO
    TITLE "16:cjc020_8974"
    INDEX 01 00:43:17
  TRACK 57 AUDIO
    TITLE "0:"
    INDEX 01 00:44:18
  TRACK 58 AUDIO
    TITLE "17:cjc020_8975"
    INDEX 01 00:45:00
  TRACK 59 AUDIO
    TITLE "0:"
    INDEX 01 00:46:19
  TRACK 60 AUDIO
    TITLE "16:cjc020_8976"
    INDEX 01 00:46:27
  TRACK 61 AUDIO
    TITLE "0:"
    INDEX 01 00:47:28
  TRACK 62 AUDIO
    TITLE "17:cjc020_8977"
    INDEX 01 00:48:14
  TRACK 63 AUDIO
    TITLE "0:"
    INDEX 01 00:49:53
  TRACK 64 AUDIO
    TITLE "16:cjc020_8978"
    INDEX 01 00:49:55
  TRACK 65 AUDIO
    TITLE "0:"
    INDEX 01 00:50:60
  TRACK 66 AUDIO
    TITLE "17:cjc020_8979"
    INDEX 01 00:51:48
  TRACK 67 AUDIO
    TITLE "0:"
    INDEX 01 00:52:63
  TRACK 68 AUDIO
    TITLE "16:cjc020_8980"
    INDEX 01 00:52:71
  TRACK 69 AUDIO
    TITLE "0:"
    INDEX 01 00:54:01
  TRACK 70 AUDIO
    TITLE "17:cjc020_8981"
    INDEX 01 00:54:60
  TRACK 71 AUDIO
    TITLE "0:"
    INDEX 01 00:56:10
  TRACK 72 AUDIO
    TITLE "16:cjc020_8982"
    INDEX 01 00:56:14
  TRACK 73 AUDIO
    TITLE "0:"
    INDEX 01 00:57:25
